<svg width="28" height="29" viewBox="0 0 28 29" fill="none" xmlns="http://www.w3.org/2000/svg">
<path d="M18.6323 26.0989V21.6501C18.6754 21.102 18.6014 20.5509 18.4151 20.0336C18.2288 19.5163 17.9345 19.0446 17.5517 18.6498C21.1613 18.2475 24.9549 16.8795 24.9549 10.6029C24.9546 8.99796 24.3372 7.45453 23.2305 6.29211C23.7546 4.88793 23.7175 3.33586 23.1271 1.95829C23.1271 1.95829 21.7706 1.55595 18.6323 3.65963C15.9976 2.94555 13.2202 2.94555 10.5854 3.65963C7.44717 1.55595 6.09069 1.95829 6.09069 1.95829C5.50026 3.33586 5.4632 4.88793 5.98723 6.29211C4.87231 7.46316 4.25431 9.02053 4.2629 10.6374C4.2629 16.868 8.05643 18.236 11.666 18.6843C11.2878 19.0751 10.9961 19.5412 10.81 20.0522C10.6238 20.5632 10.5473 21.1076 10.5854 21.6501V26.0989M10.5854 22.6503C4.83768 24.3746 4.83768 19.7764 2.53857 19.2016L10.5854 22.6503Z" stroke="#3B7BF7" stroke-width="1.57653" stroke-linecap="round" stroke-linejoin="round"/>
</svg>
