<svg width="28" height="28" viewBox="0 0 28 28" fill="none" xmlns="http://www.w3.org/2000/svg">
<path d="M19.7746 2.83032H8.60747C5.52376 2.83032 3.02393 5.33016 3.02393 8.41387V19.581C3.02393 22.6647 5.52376 25.1645 8.60747 25.1645H19.7746C22.8583 25.1645 25.3581 22.6647 25.3581 19.581V8.41387C25.3581 5.33016 22.8583 2.83032 19.7746 2.83032Z" stroke="#3B7BF7" stroke-width="1.57653" stroke-linecap="round" stroke-linejoin="round"/>
<path d="M18.6583 13.2939C18.7961 14.2233 18.6374 15.1725 18.2047 16.0064C17.7719 16.8404 17.0873 17.5167 16.248 17.9391C15.4088 18.3615 14.4578 18.5085 13.5301 18.3592C12.6025 18.21 11.7456 17.772 11.0813 17.1077C10.4169 16.4433 9.97895 15.5864 9.82968 14.6588C9.68042 13.7312 9.82745 12.7801 10.2499 11.9409C10.6723 11.1017 11.3485 10.417 12.1825 9.98427C13.0165 9.55155 13.9656 9.39281 14.895 9.53062C15.843 9.6712 16.7207 10.1129 17.3983 10.7906C18.076 11.4683 18.5177 12.3459 18.6583 13.2939Z" stroke="#3B7BF7" stroke-width="1.57653" stroke-linecap="round" stroke-linejoin="round"/>
<path d="M20.3335 7.85553H20.345" stroke="#3B7BF7" stroke-width="1.57653" stroke-linecap="round" stroke-linejoin="round"/>
</svg>
