<svg width="28" height="28" viewBox="0 0 28 28" fill="none" xmlns="http://www.w3.org/2000/svg">
<path d="M18.2095 9.53064C19.9865 9.53064 21.6908 10.2366 22.9473 11.4931C24.2039 12.7496 24.9098 14.4539 24.9098 16.2309V24.0479H20.4429V16.2309C20.4429 15.6386 20.2076 15.0705 19.7888 14.6516C19.3699 14.2328 18.8019 13.9975 18.2095 13.9975C17.6172 13.9975 17.0491 14.2328 16.6303 14.6516C16.2114 15.0705 15.9761 15.6386 15.9761 16.2309V24.0479H11.5093V16.2309C11.5093 14.4539 12.2152 12.7496 13.4717 11.4931C14.7283 10.2366 16.4325 9.53064 18.2095 9.53064V9.53064Z" stroke="#3B7BF7" stroke-width="1.57653" stroke-linecap="round" stroke-linejoin="round"/>
<path d="M7.04203 10.6473H2.5752V24.0478H7.04203V10.6473Z" stroke="#3B7BF7" stroke-width="1.57653" stroke-linecap="round" stroke-linejoin="round"/>
<path d="M4.80861 7.29716C6.0421 7.29716 7.04203 6.29722 7.04203 5.06374C7.04203 3.83026 6.0421 2.83032 4.80861 2.83032C3.57513 2.83032 2.5752 3.83026 2.5752 5.06374C2.5752 6.29722 3.57513 7.29716 4.80861 7.29716Z" stroke="#3B7BF7" stroke-width="1.57653" stroke-linecap="round" stroke-linejoin="round"/>
</svg>
