<svg width="33" height="33" viewBox="0 0 33 33" fill="none" xmlns="http://www.w3.org/2000/svg">
<path fill-rule="evenodd" clip-rule="evenodd" d="M17.6466 2.25214C21.1288 2.25214 24.4684 3.63542 26.9306 6.09769C29.3929 8.55996 30.7762 11.8995 30.7762 15.3817C30.7762 18.8639 29.3929 22.2034 26.9306 24.6657C24.4684 27.1279 21.1288 28.5112 17.6466 28.5112C14.1645 28.5112 10.8249 27.1279 8.36264 24.6657C5.90038 22.2034 4.51709 18.8639 4.51709 15.3817C4.51709 11.8995 5.90038 8.55996 8.36264 6.09769C10.8249 3.63542 14.1645 2.25214 17.6466 2.25214ZM27.5322 10.3319C26.2367 7.81302 24.0322 5.88077 21.3653 4.92652C22.2622 6.62326 22.9106 8.4412 23.2903 10.3319H27.5322ZM28.7078 16.3815C28.7401 16.0492 28.7563 15.7156 28.7562 15.3817C28.7542 14.3566 28.6094 13.3369 28.326 12.3518H23.5953C23.66 13.0204 23.7064 13.693 23.7064 14.3717C23.7022 15.7288 23.5629 17.0821 23.2903 18.4116H28.326C28.5179 17.747 28.6452 17.0683 28.7098 16.3815H28.7078ZM21.5673 16.3815L21.5794 16.2785C21.6484 15.6452 21.6841 15.0088 21.6865 14.3717C21.6729 13.6961 21.6217 13.0217 21.533 12.3518H13.7603C13.6708 13.0216 13.6196 13.696 13.6068 14.3717C13.6117 15.7317 13.7696 17.0869 14.0774 18.4116H21.2159C21.3714 17.741 21.4885 17.0643 21.5673 16.3815ZM21.1795 10.3319C20.7036 8.19548 19.8447 6.16295 18.6445 4.33266C18.3132 4.30438 17.9819 4.27207 17.6466 4.27207C17.4362 4.27309 17.226 4.2832 17.0164 4.30237L16.6488 4.33266L16.6367 4.35286C15.4427 6.17779 14.5881 8.20327 14.1138 10.3319H21.1795ZM12.0029 10.3319C12.3904 8.44251 13.0475 6.6187 13.9542 4.91642C11.2757 5.86741 9.06085 7.80418 7.7611 10.3319H12.0029ZM6.96726 12.3518C6.68426 13.337 6.53946 14.3567 6.53702 15.3817C6.53946 16.4067 6.68426 17.4264 6.96726 18.4116H12.0029C11.7291 17.0823 11.5897 15.7289 11.5868 14.3717C11.5868 13.693 11.6333 13.0204 11.6979 12.3518H6.96726ZM12.5302 20.4315H7.76312C8.52668 21.923 9.61685 23.223 10.9525 24.2348C12.2881 25.2465 13.8347 25.944 15.4772 26.2752C14.1844 24.5 13.1891 22.5263 12.5302 20.4315ZM17.6466 25.7722C18.9383 24.1747 19.9479 22.3686 20.6321 20.4315H14.6612C15.3454 22.3685 16.355 24.1747 17.6466 25.7722ZM22.7631 20.4315C22.1042 22.5263 21.1088 24.5 19.816 26.2752C21.4584 25.9437 23.005 25.2461 24.3405 24.2344C25.6761 23.2227 26.7664 21.9228 27.5301 20.4315H22.7631Z" fill="#3B7BF7"/>
</svg>
